<mxfile host="app.diagrams.net" agent="Mozilla/5.0 (Windows NT 10.0; Win64; x64) AppleWebKit/537.36 (KHTML, like Gecko) Chrome/130.0.0.0 Safari/537.36 Edg/130.0.0.0" version="24.8.3">
  <diagram id="R2lEEEUBdFMjLlhIrx00" name="Page-1">
    <mxGraphModel dx="1042" dy="531" grid="1" gridSize="10" guides="1" tooltips="1" connect="1" arrows="1" fold="1" page="1" pageScale="1" pageWidth="850" pageHeight="1100" math="0" shadow="0" extFonts="Permanent Marker^https://fonts.googleapis.com/css?family=Permanent+Marker">
      <root>
        <mxCell id="0" />
        <mxCell id="1" parent="0" />
        <mxCell id="B8sZF6MYjG3EGyQ36ST3-29" value="isa" style="triangle;whiteSpace=wrap;html=1;direction=south;" parent="1" vertex="1">
          <mxGeometry x="600" y="280" width="62.5" height="40" as="geometry" />
        </mxCell>
        <mxCell id="B8sZF6MYjG3EGyQ36ST3-30" value="" style="endArrow=none;html=1;rounded=0;" parent="1" edge="1">
          <mxGeometry width="50" height="50" relative="1" as="geometry">
            <mxPoint x="630.95" y="280" as="sourcePoint" />
            <mxPoint x="630.94" y="230" as="targetPoint" />
          </mxGeometry>
        </mxCell>
        <mxCell id="B8sZF6MYjG3EGyQ36ST3-37" value="" style="endArrow=none;html=1;rounded=0;exitX=0.5;exitY=0;exitDx=0;exitDy=0;entryX=0.432;entryY=0.001;entryDx=0;entryDy=0;entryPerimeter=0;" parent="1" source="B8sZF6MYjG3EGyQ36ST3-29" edge="1">
          <mxGeometry width="50" height="50" relative="1" as="geometry">
            <mxPoint x="650" y="300" as="sourcePoint" />
            <mxPoint x="753.1999999999998" y="330.1" as="targetPoint" />
          </mxGeometry>
        </mxCell>
        <mxCell id="B8sZF6MYjG3EGyQ36ST3-38" value="" style="endArrow=none;html=1;rounded=0;entryX=0.5;entryY=1;entryDx=0;entryDy=0;exitX=0.583;exitY=0;exitDx=0;exitDy=0;exitPerimeter=0;" parent="1" source="B8sZF6MYjG3EGyQ36ST3-47" target="B8sZF6MYjG3EGyQ36ST3-29" edge="1">
          <mxGeometry width="50" height="50" relative="1" as="geometry">
            <mxPoint x="500" y="335" as="sourcePoint" />
            <mxPoint x="540" y="310" as="targetPoint" />
          </mxGeometry>
        </mxCell>
        <mxCell id="B8sZF6MYjG3EGyQ36ST3-39" value="" style="endArrow=none;html=1;rounded=0;exitX=0.5;exitY=0;exitDx=0;exitDy=0;" parent="1" edge="1">
          <mxGeometry width="50" height="50" relative="1" as="geometry">
            <mxPoint x="631.2500000000002" y="365" as="sourcePoint" />
            <mxPoint x="630.94" y="320" as="targetPoint" />
          </mxGeometry>
        </mxCell>
        <mxCell id="B8sZF6MYjG3EGyQ36ST3-43" value="Kullanıcı" style="swimlane;fontStyle=0;childLayout=stackLayout;horizontal=1;startSize=30;horizontalStack=0;resizeParent=1;resizeParentMax=0;resizeLast=0;collapsible=1;marginBottom=0;whiteSpace=wrap;html=1;" parent="1" vertex="1">
          <mxGeometry x="576.25" y="120" width="110" height="110" as="geometry" />
        </mxCell>
        <mxCell id="B8sZF6MYjG3EGyQ36ST3-46" value="&lt;div&gt;Kullanıcı ID&lt;/div&gt;&lt;div&gt;Ad Soyad&lt;/div&gt;&lt;div&gt;e posta&lt;/div&gt;&lt;div&gt;şifre&lt;/div&gt;&lt;div&gt;rol&lt;/div&gt;" style="text;strokeColor=none;fillColor=none;align=left;verticalAlign=middle;spacingLeft=4;spacingRight=4;overflow=hidden;points=[[0,0.5],[1,0.5]];portConstraint=eastwest;rotatable=0;whiteSpace=wrap;html=1;" parent="B8sZF6MYjG3EGyQ36ST3-43" vertex="1">
          <mxGeometry y="30" width="110" height="80" as="geometry" />
        </mxCell>
        <mxCell id="B8sZF6MYjG3EGyQ36ST3-47" value="Hasta" style="swimlane;fontStyle=0;childLayout=stackLayout;horizontal=1;startSize=30;horizontalStack=0;resizeParent=1;resizeParentMax=0;resizeLast=0;collapsible=1;marginBottom=0;whiteSpace=wrap;html=1;" parent="1" vertex="1">
          <mxGeometry x="430" y="340" width="120" height="110" as="geometry" />
        </mxCell>
        <mxCell id="B8sZF6MYjG3EGyQ36ST3-48" value="&lt;div&gt;Cinsiyet&amp;nbsp;&lt;/div&gt;&lt;div&gt;Doğum Tarihi&lt;div&gt;Kronik Hastalık Teşhis Tarihi Alerjiler.&lt;/div&gt;&lt;/div&gt;" style="text;strokeColor=none;fillColor=none;align=left;verticalAlign=middle;spacingLeft=4;spacingRight=4;overflow=hidden;points=[[0,0.5],[1,0.5]];portConstraint=eastwest;rotatable=0;whiteSpace=wrap;html=1;" parent="B8sZF6MYjG3EGyQ36ST3-47" vertex="1">
          <mxGeometry y="30" width="120" height="80" as="geometry" />
        </mxCell>
        <mxCell id="B8sZF6MYjG3EGyQ36ST3-51" value="Hasta Yakını" style="swimlane;fontStyle=0;childLayout=stackLayout;horizontal=1;startSize=30;horizontalStack=0;resizeParent=1;resizeParentMax=0;resizeLast=0;collapsible=1;marginBottom=0;whiteSpace=wrap;html=1;" parent="1" vertex="1">
          <mxGeometry x="570" y="360" width="140" height="60" as="geometry" />
        </mxCell>
        <mxCell id="B8sZF6MYjG3EGyQ36ST3-52" value="Yakınlık Durumu" style="text;strokeColor=none;fillColor=none;align=left;verticalAlign=middle;spacingLeft=4;spacingRight=4;overflow=hidden;points=[[0,0.5],[1,0.5]];portConstraint=eastwest;rotatable=0;whiteSpace=wrap;html=1;" parent="B8sZF6MYjG3EGyQ36ST3-51" vertex="1">
          <mxGeometry y="30" width="140" height="30" as="geometry" />
        </mxCell>
        <mxCell id="B8sZF6MYjG3EGyQ36ST3-55" value="Sağlık Profesyoneli" style="swimlane;fontStyle=0;childLayout=stackLayout;horizontal=1;startSize=30;horizontalStack=0;resizeParent=1;resizeParentMax=0;resizeLast=0;collapsible=1;marginBottom=0;whiteSpace=wrap;html=1;" parent="1" vertex="1">
          <mxGeometry x="720" y="330" width="140" height="60" as="geometry" />
        </mxCell>
        <mxCell id="B8sZF6MYjG3EGyQ36ST3-57" value="Uzmanlık Alanı" style="text;strokeColor=none;fillColor=none;align=left;verticalAlign=middle;spacingLeft=4;spacingRight=4;overflow=hidden;points=[[0,0.5],[1,0.5]];portConstraint=eastwest;rotatable=0;whiteSpace=wrap;html=1;" parent="B8sZF6MYjG3EGyQ36ST3-55" vertex="1">
          <mxGeometry y="30" width="140" height="30" as="geometry" />
        </mxCell>
        <mxCell id="B8sZF6MYjG3EGyQ36ST3-59" value="İlaç" style="swimlane;fontStyle=0;childLayout=stackLayout;horizontal=1;startSize=30;horizontalStack=0;resizeParent=1;resizeParentMax=0;resizeLast=0;collapsible=1;marginBottom=0;whiteSpace=wrap;html=1;" parent="1" vertex="1">
          <mxGeometry x="40" y="335" width="120" height="110" as="geometry" />
        </mxCell>
        <mxCell id="B8sZF6MYjG3EGyQ36ST3-61" value="İlaç_ID (PK)&amp;nbsp;&lt;div&gt;İlaç Adı&amp;nbsp;&lt;/div&gt;&lt;div&gt;Dozaj&amp;nbsp;&lt;/div&gt;&lt;div&gt;Kullanım Talimatı&amp;nbsp;&lt;/div&gt;&lt;div&gt;Yan Etkiler&lt;/div&gt;" style="text;strokeColor=none;fillColor=none;align=left;verticalAlign=middle;spacingLeft=4;spacingRight=4;overflow=hidden;points=[[0,0.5],[1,0.5]];portConstraint=eastwest;rotatable=0;whiteSpace=wrap;html=1;" parent="B8sZF6MYjG3EGyQ36ST3-59" vertex="1">
          <mxGeometry y="30" width="120" height="80" as="geometry" />
        </mxCell>
        <mxCell id="B8sZF6MYjG3EGyQ36ST3-63" value="İlaç Kullanımı" style="swimlane;fontStyle=0;childLayout=stackLayout;horizontal=1;startSize=30;horizontalStack=0;resizeParent=1;resizeParentMax=0;resizeLast=0;collapsible=1;marginBottom=0;whiteSpace=wrap;html=1;" parent="1" vertex="1">
          <mxGeometry x="220" y="210" width="140" height="140" as="geometry" />
        </mxCell>
        <mxCell id="B8sZF6MYjG3EGyQ36ST3-65" value="Kullanım_ID (PK)&lt;div&gt;Hasta_ID (FK)&lt;/div&gt;&lt;div&gt;İlaç_ID (FK)&amp;nbsp;&lt;/div&gt;&lt;div&gt;Başlangıç Tarihi&lt;/div&gt;&lt;div&gt;Bitiş Tarihi&amp;nbsp;&lt;/div&gt;&lt;div&gt;Kullanım Sıklığı&amp;nbsp;&lt;/div&gt;&lt;div&gt;Son Kullanım Tarihi&lt;/div&gt;" style="text;strokeColor=none;fillColor=none;align=left;verticalAlign=middle;spacingLeft=4;spacingRight=4;overflow=hidden;points=[[0,0.5],[1,0.5]];portConstraint=eastwest;rotatable=0;whiteSpace=wrap;html=1;" parent="B8sZF6MYjG3EGyQ36ST3-63" vertex="1">
          <mxGeometry y="30" width="140" height="110" as="geometry" />
        </mxCell>
        <mxCell id="B8sZF6MYjG3EGyQ36ST3-67" value="Takvim ve Bildirimler" style="swimlane;fontStyle=0;childLayout=stackLayout;horizontal=1;startSize=30;horizontalStack=0;resizeParent=1;resizeParentMax=0;resizeLast=0;collapsible=1;marginBottom=0;whiteSpace=wrap;html=1;" parent="1" vertex="1">
          <mxGeometry x="430" y="500" width="130" height="130" as="geometry" />
        </mxCell>
        <mxCell id="B8sZF6MYjG3EGyQ36ST3-69" value="Bildirim_ID (PK)&lt;div&gt;Hasta_ID (FK)&lt;/div&gt;&lt;div&gt;İlaç_ID (FK)&lt;/div&gt;&lt;div&gt;Kullanım Tarihi&amp;nbsp;&lt;/div&gt;&lt;div&gt;Kullanım Saati&lt;/div&gt;&lt;div&gt;Bildirim Durumu&lt;/div&gt;" style="text;strokeColor=none;fillColor=none;align=left;verticalAlign=middle;spacingLeft=4;spacingRight=4;overflow=hidden;points=[[0,0.5],[1,0.5]];portConstraint=eastwest;rotatable=0;whiteSpace=wrap;html=1;" parent="B8sZF6MYjG3EGyQ36ST3-67" vertex="1">
          <mxGeometry y="30" width="130" height="100" as="geometry" />
        </mxCell>
        <mxCell id="B8sZF6MYjG3EGyQ36ST3-73" value="" style="endArrow=none;dashed=1;html=1;rounded=0;entryX=0.423;entryY=0.986;entryDx=0;entryDy=0;entryPerimeter=0;" parent="1" target="B8sZF6MYjG3EGyQ36ST3-65" edge="1">
          <mxGeometry width="50" height="50" relative="1" as="geometry">
            <mxPoint x="280" y="410" as="sourcePoint" />
            <mxPoint x="210" y="350" as="targetPoint" />
            <Array as="points" />
          </mxGeometry>
        </mxCell>
        <mxCell id="B8sZF6MYjG3EGyQ36ST3-75" value="" style="endArrow=none;html=1;rounded=0;entryX=-0.015;entryY=0.408;entryDx=0;entryDy=0;exitX=1;exitY=0.5;exitDx=0;exitDy=0;entryPerimeter=0;" parent="1" source="B8sZF6MYjG3EGyQ36ST3-61" target="B8sZF6MYjG3EGyQ36ST3-48" edge="1">
          <mxGeometry width="50" height="50" relative="1" as="geometry">
            <mxPoint x="250" y="445" as="sourcePoint" />
            <mxPoint x="300" y="395" as="targetPoint" />
          </mxGeometry>
        </mxCell>
        <mxCell id="B8sZF6MYjG3EGyQ36ST3-76" value="0..*" style="text;html=1;align=center;verticalAlign=middle;resizable=0;points=[];autosize=1;strokeColor=none;fillColor=none;" parent="1" vertex="1">
          <mxGeometry x="160" y="378" width="40" height="30" as="geometry" />
        </mxCell>
        <mxCell id="B8sZF6MYjG3EGyQ36ST3-77" value="0..*" style="text;html=1;align=center;verticalAlign=middle;resizable=0;points=[];autosize=1;strokeColor=none;fillColor=none;" parent="1" vertex="1">
          <mxGeometry x="385" y="375" width="40" height="30" as="geometry" />
        </mxCell>
      </root>
    </mxGraphModel>
  </diagram>
</mxfile>
